<?xml version="1.0" encoding="utf-8"?>
<!-- Generator: Adobe Illustrator 27.4.1, SVG Export Plug-In . SVG Version: 6.00 Build 0)  -->
<svg version="1.1" id="레이어_1" xmlns="http://www.w3.org/2000/svg" xmlns:xlink="http://www.w3.org/1999/xlink" x="0px"
	 y="0px" viewBox="0 0 26 26" style="enable-background:new 0 0 26 26;" xml:space="preserve">
<style type="text/css">
	.st0{fill:#FFFFFF;}
</style>
<g>
	<path class="st0" d="M0,22.5c0,0.9,0.3,1.7,0.8,2.4c0.6,0.6,1.4,1.1,2.2,1.1c0.9,0.1,1.7-0.2,2.4-0.7L5.8,25l7.2-7.2l7.2,7.2
		c0.6,0.6,1.4,1,2.3,1c0.9,0,1.7-0.3,2.4-0.8c0.6-0.6,1.1-1.4,1.1-2.2c0.1-0.9-0.2-1.7-0.7-2.4L25,20.2L17.8,13L25,5.8
		c0.6-0.6,1-1.4,1-2.3c0-0.9-0.3-1.7-0.8-2.4c-0.6-0.6-1.4-1.1-2.2-1.1c-0.9-0.1-1.7,0.2-2.4,0.7L20.2,1L13,8.2L5.8,1
		C5.2,0.4,4.4,0,3.5,0C2.6,0,1.8,0.3,1.1,0.8C0.5,1.4,0.1,2.2,0,3.1c-0.1,0.9,0.2,1.7,0.7,2.4L1,5.8L8.2,13L1,20.2
		C0.4,20.8,0,21.6,0,22.5z"/>
</g>
</svg>
