<svg width="40" height="40" viewBox="0 0 40 40" fill="none" xmlns="http://www.w3.org/2000/svg">
<path d="M15.8333 15.5417V24.4583C15.8333 25.125 16.1249 25.6111 16.7083 25.9167C17.2916 26.2222 17.861 26.1945 18.4166 25.8333L25.3333 21.4167C25.861 21.1111 26.1249 20.6389 26.1249 20C26.1249 19.3611 25.861 18.8889 25.3333 18.5833L18.4166 14.1667C17.861 13.8056 17.2916 13.7778 16.7083 14.0833C16.1249 14.3889 15.8333 14.875 15.8333 15.5417ZM19.9999 36.6667C17.6944 36.6667 15.5277 36.2289 13.4999 35.3533C11.4721 34.4778 9.70825 33.2906 8.20825 31.7917C6.70825 30.2917 5.52103 28.5278 4.64659 26.5C3.77214 24.4722 3.33436 22.3056 3.33325 20C3.33325 17.6945 3.77103 15.5278 4.64659 13.5C5.52214 11.4722 6.70936 9.70834 8.20825 8.20834C9.70825 6.70834 11.4721 5.52112 13.4999 4.64668C15.5277 3.77223 17.6944 3.33445 19.9999 3.33334C22.3055 3.33334 24.4721 3.77112 26.4999 4.64668C28.5277 5.52223 30.2916 6.70945 31.7916 8.20834C33.2916 9.70834 34.4794 11.4722 35.3549 13.5C36.2305 15.5278 36.6677 17.6945 36.6666 20C36.6666 22.3056 36.2288 24.4722 35.3533 26.5C34.4777 28.5278 33.2905 30.2917 31.7916 31.7917C30.2916 33.2917 28.5277 34.4795 26.4999 35.355C24.4721 36.2306 22.3055 36.6678 19.9999 36.6667ZM19.9999 33.3333C23.6944 33.3333 26.8405 32.035 29.4383 29.4383C32.036 26.8417 33.3344 23.6956 33.3333 20C33.3333 16.3056 32.0349 13.1595 29.4383 10.5617C26.8416 7.9639 23.6955 6.66557 19.9999 6.66668C16.3055 6.66668 13.1594 7.96501 10.5616 10.5617C7.96381 13.1583 6.66547 16.3045 6.66659 20C6.66659 23.6945 7.96492 26.8406 10.5616 29.4383C13.1583 32.0361 16.3044 33.3345 19.9999 33.3333Z" fill="white"/>
</svg>
