<svg width="40" height="40" viewBox="0 0 40 40" fill="none" xmlns="http://www.w3.org/2000/svg">
<path d="M19.9999 36.6667C17.6944 36.6667 15.5277 36.2289 13.4999 35.3533C11.4721 34.4778 9.70825 33.2906 8.20825 31.7917C6.70825 30.2917 5.52103 28.5278 4.64659 26.5C3.77214 24.4722 3.33436 22.3056 3.33325 20C3.33325 17.6945 3.77103 15.5278 4.64659 13.5C5.52214 11.4722 6.70936 9.70834 8.20825 8.20834C9.70825 6.70834 11.4721 5.52112 13.4999 4.64668C15.5277 3.77223 17.6944 3.33445 19.9999 3.33334C22.3055 3.33334 24.4721 3.77112 26.4999 4.64668C28.5277 5.52223 30.2916 6.70945 31.7916 8.20834C33.2916 9.70834 34.4794 11.4722 35.3549 13.5C36.2305 15.5278 36.6677 17.6945 36.6666 20C36.6666 22.3056 36.2288 24.4722 35.3533 26.5C34.4777 28.5278 33.2905 30.2917 31.7916 31.7917C30.2916 33.2917 28.5277 34.4795 26.4999 35.355C24.4721 36.2306 22.3055 36.6678 19.9999 36.6667ZM19.9999 33.3333C23.6944 33.3333 26.8405 32.035 29.4383 29.4383C32.036 26.8417 33.3344 23.6956 33.3333 20C33.3333 16.3056 32.0349 13.1595 29.4383 10.5617C26.8416 7.9639 23.6955 6.66557 19.9999 6.66668C16.3055 6.66668 13.1594 7.96501 10.5616 10.5617C7.96381 13.1583 6.66547 16.3045 6.66659 20C6.66659 23.6945 7.96492 26.8406 10.5616 29.4383C13.1583 32.0361 16.3044 33.3345 19.9999 33.3333ZM14.9999 26.6667H24.9999C25.4721 26.6667 25.8683 26.5067 26.1883 26.1867C26.5083 25.8667 26.6677 25.4711 26.6666 25V15C26.6666 14.5278 26.5066 14.1317 26.1866 13.8117C25.8666 13.4917 25.471 13.3322 24.9999 13.3333H14.9999C14.5277 13.3333 14.1316 13.4933 13.8116 13.8133C13.4916 14.1333 13.3321 14.5289 13.3333 15V25C13.3333 25.4722 13.4933 25.8683 13.8133 26.1883C14.1333 26.5083 14.5288 26.6678 14.9999 26.6667Z" fill="white"/>
</svg>
