<svg width="40" height="40" viewBox="0 0 40 40" fill="none" xmlns="http://www.w3.org/2000/svg">
<rect x="14" y="14" width="4" height="12" rx="2" fill="#fff"/>
<rect x="21" y="14" width="4" height="12" rx="2" fill="#fff"/>
<path d="M19.6667 36.3333C17.3611 36.3333 15.1944 35.8956 13.1667 35.02C11.1389 34.1444 9.375 32.9572 7.875 31.4583C6.375 29.9583 5.18778 28.1944 4.31333 26.1667C3.43889 24.1389 3.00111 21.9722 3 19.6667C3 17.3611 3.43778 15.1944 4.31333 13.1667C5.18889 11.1389 6.37611 9.375 7.875 7.875C9.375 6.375 11.1389 5.18778 13.1667 4.31333C15.1944 3.43889 17.3611 3.00111 19.6667 3C21.9722 3 24.1389 3.43778 26.1667 4.31333C28.1944 5.18889 29.9583 6.37611 31.4583 7.875C32.9583 9.375 34.1461 11.1389 35.0217 13.1667C35.8972 15.1944 36.3344 17.3611 36.3333 19.6667C36.3333 21.9722 35.8956 24.1389 35.02 26.1667C34.1444 28.1944 32.9572 29.9583 31.4583 31.4583C29.9583 32.9583 28.1944 34.1461 26.1667 35.0217C24.1389 35.8972 21.9722 36.3344 19.6667 36.3333ZM19.6667 33C23.3611 33 26.5072 31.7017 29.105 29.105C31.7028 26.5083 33.0011 23.3622 33 19.6667C33 15.9722 31.7017 12.8261 29.105 10.2283C26.5083 7.63056 23.3622 6.33222 19.6667 6.33333C15.9722 6.33333 12.8261 7.63167 10.2283 10.2283C7.63056 12.825 6.33222 15.9711 6.33333 19.6667C6.33333 23.3611 7.63167 26.5072 10.2283 29.105C12.825 31.7028 15.9711 33.0011 19.6667 33Z" fill="#fff"/>
</svg>
